ply
format ascii 1.0
element vertex 806
property float32 x
property float32 y
property float32 z
element face 1372
property list uint8 int32 vertex_indices
end_header
0.058 -0.01 0.035 
0.058 -0.01 0.043 
0.218 -0.093 0.037 
0.058 0.001 0.035 
0.103 0.042 0.036 
0.058 0.001 0.043 
-0.017 -0.001 -0.013 
-0.017 -0.001 -0.021 
-0.016 -0.009 -0.013 
-0.016 -0.009 -0.021 
0.038 0.041 0.029 
0.038 0.041 0.037 
0.174 0.059 0.033 
0.034 0.049 0.029 
0.093 0.176 0.035 
0.034 0.049 0.037 
0.011 0.031 0.023 
0.011 0.031 0.015 
-0.016 -0.002 -0.02 
-0.016 -0.002 -0.028 
-0.02 0.007 -0.021 
-0.02 0.007 -0.029 
0.013 0.023 0.026 
0.013 0.023 0.018 
0.028 -0.067 0.033 
0.028 -0.067 0.041 
0.082 -0.194 0.035 
0.033 -0.061 0.029 
0.154 -0.08 0.034 
0.033 -0.061 0.037 
0.002 -0.038 0.007 
0.002 -0.038 0.015 
-0.021 -0.013 -0.028 
-0.021 -0.013 -0.02 
-0.025 -0.02 -0.028 
-0.025 -0.02 -0.02 
-0.002 -0.044 0.015 
-0.002 -0.044 0.007 
-0.065 -0.069 -0.004 
-0.065 -0.069 0.004 
-0.24 -0.177 0 
-0.055 -0.074 -0.003 
-0.039 -0.148 0.001 
-0.055 -0.074 0.005 
-0.034 -0.036 -0.025 
-0.034 -0.036 -0.033 
-0.025 -0.005 -0.051 
-0.036 -0.006 -0.053 
-0.025 -0.005 -0.059 
-0.036 -0.006 -0.061 
-0.041 -0.033 -0.025 
-0.041 -0.033 -0.033 
-0.104 0.02 0.035 
-0.104 0.02 0.043 
-0.247 0.118 0.039 
-0.105 0.012 0.035 
-0.139 -0.005 0.039 
-0.105 0.012 0.043 
-0.063 0.006 0.021 
-0.063 0.006 0.013 
-0.041 0.003 -0.02 
-0.041 0.003 -0.012 
-0.035 0.01 -0.019 
-0.035 0.01 -0.011 
-0.063 0.013 0.02 
-0.063 0.013 0.012 
-0.012 -0.077 0.028 
-0.012 -0.077 0.039 
-0.05 -0.183 0.033 
-0.003 -0.076 0.028 
0.084 -0.164 0.033 
-0.003 -0.076 0.039 
-0.014 -0.038 0.019 
-0.014 -0.038 0.008 
-0.02 -0.011 -0.042 
-0.031 -0.012 -0.048 
-0.02 -0.011 -0.053 
-0.031 -0.012 -0.06 
-0.021 -0.041 0.017 
-0.021 -0.041 0.005 
-0.008 0.072 0.032 
-0.008 0.072 0.041 
0.053 0.136 0.043 
-0.016 0.074 0.032 
-0.052 0.176 0.037 
-0.016 0.074 0.041 
-0.021 0.046 0.029 
-0.021 0.046 0.02 
-0.029 0.007 -0.021 
-0.029 0.007 -0.012 
-0.021 0.004 -0.02 
-0.021 0.004 -0.011 
-0.015 0.043 0.023 
-0.015 0.043 0.032 
-0.102 -0.029 0.033 
-0.102 -0.029 0.043 
-0.284 -0.029 0.04 
-0.098 -0.037 0.031 
-0.158 -0.137 0.037 
-0.098 -0.037 0.041 
-0.063 -0.01 0.017 
-0.063 -0.01 0.007 
-0.043 -0.004 -0.011 
-0.043 -0.004 -0.021 
-0.062 -0.019 0.015 
-0.062 -0.019 0.005 
-0.038 -0.014 -0.012 
-0.038 -0.014 -0.022 
-0.053 0.067 -0.005 
-0.053 0.067 0.003 
-0.05 0.228 0.001 
-0.062 0.063 -0.005 
-0.213 0.148 0 
-0.062 0.063 0.003 
-0.041 0.03 -0.025 
-0.041 0.03 -0.033 
-0.036 0 -0.061 
-0.036 0 -0.053 
-0.025 0.007 -0.06 
-0.025 0.007 -0.051 
-0.034 0.034 -0.025 
-0.034 0.034 -0.033 
-0.073 -0.004 -0.241 
-0.062 -0.01 -0.243 
-0.073 -0.016 -0.24 
-0.052 -0.004 -0.245 
-0.062 0.003 -0.243 
-0.062 -0.023 -0.242 
-0.051 -0.016 -0.245 
-0.005 0.015 0.048 
-0.033 -0.001 0.048 
-0.005 -0.018 0.048 
-0.061 0.015 0.048 
-0.033 0.031 0.048 
-0.033 -0.034 0.048 
-0.061 -0.018 0.048 
-0.002 -0.11 0.184 
-0.036 -0.12 0.182 
-0.034 -0.133 0.148 
-0.087 -0.096 0.105 
-0.037 -0.122 0.1 
-0.078 -0.081 0.071 
-0.024 -0.026 0.051 
-0.002 -0.08 0.068 
-0.042 -0.088 0.063 
-0.041 -0.101 0.202 
-0.073 -0.105 0.184 
-0.096 -0.085 0.148 
-0.065 -0.03 0.051 
-0.044 -0.018 0.049 
0.025 -0.098 0.102 
0.043 -0.091 0.14 
-0.034 -0.128 0.148 
-0.037 -0.117 0.1 
-0.036 -0.115 0.182 
-0.042 -0.083 0.064 
-0.069 0.07 0.062 
-0.088 0.104 0.108 
-0.039 0.125 0.099 
-0.04 0.146 0.158 
-0.103 0.125 0.159 
-0.085 0.121 0.202 
0.016 0.106 0.142 
0.009 0.109 0.107 
-0.038 0.077 0.053 
-0.006 0.072 0.061 
-0.016 0.03 0.048 
-0.038 0.117 0.245 
0.005 0.122 0.194 
-0.04 0.143 0.202 
-0.036 0.021 0.046 
-0.055 0.026 0.048 
-0.039 0.119 0.099 
-0.04 0.14 0.158 
-0.038 0.071 0.055 
-0.04 0.137 0.202 
0.068 0.095 0.054 
0.096 0.06 0.063 
0.048 0.025 0.048 
0.026 0.044 0.041 
-0.007 0.005 0.045 
-0.015 0.021 0.045 
0.12 0.157 0.084 
0.035 0.156 0.098 
0.096 0.186 0.117 
0.133 0.073 0.096 
0.128 0.167 0.132 
0.152 0.139 0.116 
0.138 0.179 0.11 
0.003 0.062 0.048 
0.008 -0.003 0.046 
0.029 0.116 0.064 
0.068 0.095 0.058 
0.026 0.044 0.046 
0.12 0.157 0.089 
0.134 0.174 0.113 
-0.088 -0.002 0.045 
-0.066 -0.007 0.045 
-0.113 -0.062 0.044 
-0.153 -0.108 0.063 
-0.086 -0.082 0.052 
-0.163 -0.178 0.11 
-0.203 -0.164 0.111 
-0.176 -0.134 0.079 
-0.181 -0.063 0.076 
-0.211 -0.174 0.135 
-0.221 -0.128 0.124 
-0.202 -0.064 0.103 
-0.137 -0.038 0.052 
-0.056 -0.024 0.045 
-0.105 -0.128 0.072 
-0.1 -0.159 0.101 
-0.113 -0.062 0.05 
-0.153 -0.108 0.069 
-0.176 -0.134 0.085 
-0.203 -0.164 0.117 
-0.067 0.017 0.05 
-0.062 -0.002 0.048 
-0.126 0.001 0.058 
-0.158 0.002 0.088 
-0.12 -0.033 0.066 
-0.156 -0.035 0.197 
-0.172 0.003 0.195 
-0.18 0.003 0.138 
-0.138 0.066 0.147 
-0.141 0.048 0.096 
-0.135 0.002 0.238 
-0.153 0.036 0.198 
-0.117 0.034 0.066 
-0.066 -0.018 0.05 
-0.144 -0.045 0.096 
-0.133 -0.063 0.147 
-0.119 0.001 0.06 
-0.151 0.002 0.088 
-0.174 0.003 0.138 
-0.166 0.003 0.195 
-0.081 0 0.055 
-0.127 0.037 0.059 
-0.102 0.057 0.051 
-0.139 0.106 0.068 
-0.096 0.125 0.078 
-0.077 0.074 0.059 
-0.166 0.141 0.088 
-0.195 0.071 0.111 
-0.211 0.112 0.126 
-0.182 0.166 0.16 
-0.141 0.181 0.112 
-0.184 0.163 0.106 
-0.106 0.151 0.127 
-0.055 0.023 0.055 
-0.066 0.007 0.054 
-0.17 0.068 0.08 
-0.102 0.057 0.058 
-0.139 0.106 0.075 
-0.166 0.141 0.094 
-0.184 0.163 0.112 
0.047 -0.101 0.072 
0.077 -0.064 0.083 
0.097 -0.073 0.094 
0.103 -0.167 0.083 
0.115 -0.085 0.105 
0.145 -0.159 0.101 
0.001 -0.16 0.067 
0.074 -0.136 0.081 
-0.007 -0.09 0.067 
0.024 -0.071 0.058 
-0.002 -0.01 0.047 
0.05 -0.046 0.066 
0.138 -0.221 0.1 
0.084 -0.214 0.101 
0.128 -0.207 0.086 
0.048 -0.194 0.099 
0.002 -0.121 0.079 
-0.028 -0.037 0.047 
-0.018 -0.016 0.046 
0.024 -0.071 0.063 
0.047 -0.101 0.077 
0.074 -0.136 0.086 
0.103 -0.167 0.088 
0.128 -0.207 0.09 
0.115 0.003 0.15 
0.077 -0.066 0.15 
0.08 -0.054 0.109 
0.067 -0.039 0.076 
0.076 0.003 0.07 
0.103 0.003 0.102 
0.032 0.026 0.056 
0.067 0.037 0.076 
0.078 0.048 0.09 
0.001 0.015 0.05 
0.036 0.003 0.051 
0.071 -0.002 0.22 
0.089 -0.038 0.197 
0.103 0.003 0.197 
0.032 -0.029 0.055 
0.001 -0.017 0.05 
-0.002 0.003 0.05 
0.067 0.063 0.118 
0.091 0.036 0.193 
0.096 0.003 0.197 
0.108 0.003 0.15 
0.069 0.003 0.07 
0.029 0.003 0.053 
0.096 0.003 0.102 
-0.209 -0.318 0 
-0.265 -0.391 -0.021 
-0.416 -0.317 -0.02 
-0.125 -0.46 -0.017 
-0.173 -0.534 -0.007 
-0.342 -0.49 -0.063 
-0.24 -0.593 -0.07 
-0.362 -0.651 -0.084 
-0.427 -0.595 -0.103 
-0.484 -0.421 -0.048 
-0.384 -0.54 -0.085 
-0.326 -0.261 0.009 
-0.15 -0.222 0.004 
-0.481 -0.667 -0.117 
-0.524 -0.548 -0.093 
-0.512 -0.477 -0.043 
-0.071 -0.304 0.021 
-0.06 -0.266 0.007 
-0.265 -0.391 -0.029 
-0.209 -0.318 -0.008 
-0.342 -0.49 -0.071 
-0.384 -0.54 -0.093 
-0.427 -0.595 -0.111 
-0.15 -0.222 -0.004 
-0.562 -0.335 -0.035 
-0.615 -0.432 -0.072 
-0.67 -0.321 -0.055 
-0.451 -0.203 0.009 
-0.52 -0.266 -0.014 
-0.59 -0.126 -0.01 
-0.401 -0.344 0.033 
-0.316 -0.141 0.048 
-0.23 -0.098 0.041 
-0.579 -0.504 -0.052 
-0.689 -0.511 -0.125 
-0.511 -0.437 -0.014 
-0.46 -0.386 0.047 
-0.284 -0.247 0.015 
-0.529 -0.087 0.007 
-0.401 -0.056 0.116 
-0.223 -0.196 0.06 
-0.635 -0.189 -0.005 
-0.562 -0.335 -0.045 
-0.52 -0.266 -0.024 
-0.451 -0.203 -0.001 
-0.316 -0.141 0.038 
-0.23 -0.098 0.031 
-0.615 -0.432 -0.082 
0.496 -0.443 -0.052 
0.582 -0.333 -0.02 
0.625 -0.393 -0.053 
0.555 -0.484 -0.076 
0.485 -0.573 -0.052 
0.407 -0.372 -0.019 
0.497 -0.256 0.029 
0.186 -0.19 0.03 
0.24 -0.12 0.059 
0.317 -0.159 0.011 
0.132 -0.259 0.038 
0.282 -0.272 0.026 
0.663 -0.57 -0.139 
0.571 -0.586 -0.098 
0.614 -0.531 -0.125 
0.417 -0.545 -0.011 
0.323 -0.48 -0.009 
0.215 -0.358 0.055 
0.123 -0.14 0.03 
0.657 -0.475 -0.093 
0.555 -0.484 -0.068 
0.614 -0.531 -0.117 
0.407 -0.372 -0.011 
0.496 -0.443 -0.044 
0.282 -0.272 0.034 
0.123 -0.14 0.038 
0.186 -0.19 0.038 
-0.021 0.63 0.029 
-0.059 0.517 0.113 
0.084 0.513 -0.003 
0.207 0.669 0.041 
0.12 0.682 0.047 
0.105 0.611 0.014 
0.048 0.357 0.027 
0.029 0.266 0.032 
0.105 0.235 0.048 
0.015 0.199 0.036 
-0.056 0.26 0.06 
0.143 0.775 0.054 
0.022 0.697 0.047 
0.21 0.494 -0.008 
0.152 0.341 0.057 
0.084 0.188 0.074 
0.003 0.143 0.032 
-0.057 0.317 0.022 
0.22 0.593 0.046 
-0.058 0.373 0.032 
0.12 0.682 0.056 
0.048 0.357 0.036 
0.084 0.513 0.006 
0.105 0.611 0.023 
0.003 0.143 0.041 
0.015 0.199 0.045 
0.029 0.266 0.041 
-0.676 0.129 -0.056 
-0.697 0.023 -0.023 
-0.764 0.064 -0.067 
-0.512 0.1 -0.007 
-0.477 0.093 0.001 
-0.465 -0.027 0.031 
-0.614 0.12 -0.038 
-0.656 0.232 -0.032 
-0.523 0.224 -0.009 
-0.456 0.205 0.003 
-0.244 0.043 0.033 
-0.354 0.065 0.031 
-0.372 -0.026 0.016 
-0.81 0.132 -0.123 
-0.737 0.198 -0.077 
-0.751 0.128 -0.103 
-0.592 0.233 0.026 
-0.295 -0.025 0.061 
-0.21 -0.021 0.038 
-0.371 0.17 0.057 
-0.536 -0.025 0.057 
-0.652 0.004 -0.013 
-0.676 0.129 -0.048 
-0.477 0.093 0.009 
-0.512 0.1 0.001 
-0.614 0.12 -0.031 
-0.354 0.065 0.039 
-0.244 0.043 0.041 
-0.751 0.128 -0.095 
0.706 0.038 -0.058 
0.751 0.041 -0.065 
0.75 -0.031 -0.051 
0.543 0.015 -0.01 
0.63 0.028 -0.038 
0.63 -0.101 -0.033 
0.561 0.17 -0.01 
0.63 0.166 -0.003 
0.279 0.099 0.04 
0.279 -0.01 0.043 
0.218 -0.005 0.041 
0.469 0.004 0.014 
0.318 -0.009 0.043 
0.318 0.108 0.046 
0.469 -0.141 0.02 
0.279 -0.107 0.056 
0.74 0.127 -0.053 
0.81 0.048 -0.075 
0.706 0.145 -0.046 
0.469 0.172 0.013 
0.218 0.085 0.037 
0.318 -0.116 0.044 
0.543 -0.127 0.027 
0.706 -0.068 -0.054 
0.706 0.038 -0.069 
0.63 0.028 -0.049 
0.469 0.004 0.003 
0.279 -0.01 0.032 
0.318 -0.009 0.032 
0.218 -0.005 0.03 
0.751 0.041 -0.076 
0.543 0.015 -0.021 
0.296 0.413 0.026 
0.242 0.352 0.019 
0.309 0.237 0.021 
0.368 0.477 0.017 
0.443 0.347 -0.031 
0.51 0.398 -0.068 
0.619 0.369 -0.108 
0.567 0.442 -0.157 
0.513 0.227 -0.017 
0.367 0.29 -0.006 
0.363 0.144 0.05 
0.258 0.207 0.028 
0.23 0.093 0.035 
0.309 0.12 0.053 
0.193 0.157 0.029 
0.145 0.239 0.056 
0.63 0.49 -0.219 
0.525 0.535 -0.098 
0.445 0.52 0.01 
0.202 0.304 0.01 
0.138 0.122 0.028 
0.433 0.176 0.06 
0.577 0.292 -0.019 
0.309 0.237 0.029 
0.51 0.398 -0.06 
0.443 0.347 -0.023 
0.567 0.442 -0.149 
0.367 0.29 0.002 
0.258 0.207 0.036 
0.193 0.157 0.037 
0.138 0.122 0.036 
0.133 -0.63 -0.062 
0.157 -0.705 -0.164 
0.065 -0.727 -0.112 
0.259 -0.53 -0.016 
0.258 -0.6 -0.013 
0.194 -0.373 0.05 
0.22 -0.444 0.059 
0.095 -0.461 -0.001 
0.118 -0.55 -0.024 
-0.023 -0.607 0.006 
0.128 -0.244 0.036 
0.038 -0.257 0.034 
0.081 -0.426 0.011 
0.062 -0.333 0.034 
0.017 -0.174 0.034 
0.169 -0.775 -0.216 
0.007 -0.668 0.004 
-0.048 -0.5 0.028 
-0.05 -0.445 0.022 
-0.052 -0.349 0.01 
-0.053 -0.27 0.056 
0.166 -0.318 0.053 
0.242 -0.7 -0.121 
0.118 -0.55 -0.02 
0.133 -0.63 -0.058 
0.062 -0.333 0.038 
0.081 -0.426 0.014 
0.095 -0.461 0.003 
0.038 -0.257 0.038 
0.157 -0.705 -0.16 
0.017 -0.174 0.037 
-0.374 0.525 -0.08 
-0.42 0.584 -0.102 
-0.319 0.634 -0.095 
-0.125 0.457 -0.017 
-0.26 0.391 -0.019 
-0.318 0.46 -0.05 
-0.524 0.533 -0.087 
-0.523 0.57 -0.094 
-0.44 0.61 -0.107 
-0.469 0.386 -0.044 
-0.513 0.475 -0.043 
-0.194 0.303 0.004 
-0.311 0.245 0.012 
-0.417 0.314 -0.02 
-0.165 0.255 0.005 
-0.269 0.204 0.004 
-0.071 0.301 0.02 
-0.481 0.664 -0.117 
-0.131 0.188 0.004 
-0.096 0.351 0.001 
-0.173 0.532 -0.007 
-0.24 0.591 -0.071 
-0.362 0.648 -0.084 
-0.42 0.584 -0.11 
-0.374 0.525 -0.088 
-0.318 0.46 -0.058 
-0.26 0.391 -0.028 
-0.44 0.61 -0.115 
-0.194 0.303 -0.005 
-0.165 0.255 -0.003 
-0.131 0.188 -0.005 
-0.034 -0.006 0.057 
-0.03 -0.001 0.053 
-0.036 -0.001 0.057 
-0.034 0.003 0.057 
-0.03 0.005 0.057 
-0.025 0.003 0.057 
-0.024 -0.001 0.057 
-0.025 -0.006 0.176 
-0.03 -0.001 0.181 
-0.024 -0.001 0.176 
-0.025 0.003 0.176 
-0.03 0.005 0.176 
-0.034 0.003 0.176 
-0.036 -0.001 0.176 
-0.034 -0.006 0.176 
-0.03 -0.007 0.176 
-0.025 -0.006 0.057 
-0.03 -0.007 0.057 
-0.011 -0.001 0.131 
-0.016 -0.014 0.131 
-0.016 0.012 0.131 
-0.03 0.017 0.131 
-0.048 -0.001 0.131 
-0.043 0.012 0.131 
-0.043 -0.014 0.131 
-0.03 -0.02 0.131 
-0.011 -0.001 0.103 
-0.016 -0.014 0.103 
-0.03 0.017 0.103 
-0.016 0.012 0.103 
-0.048 -0.001 0.103 
-0.043 0.012 0.103 
-0.03 -0.02 0.103 
-0.043 -0.014 0.103 
-0.071 0.036 0.122 
-0.074 0.044 0.117 
-0.067 0.041 0.124 
-0.034 0.003 0.054 
-0.084 0.009 0.122 
-0.091 0.015 0.117 
-0.084 0.017 0.124 
-0.036 0 0.054 
-0.083 -0.019 0.122 
-0.091 -0.017 0.117 
-0.085 -0.013 0.124 
-0.036 -0.003 0.054 
-0.062 -0.047 0.122 
-0.07 -0.051 0.117 
-0.068 -0.043 0.124 
-0.034 -0.006 0.054 
-0.025 -0.057 0.122 
-0.029 -0.065 0.117 
-0.032 -0.058 0.124 
-0.029 -0.008 0.054 
0.011 -0.039 0.122 
0.014 -0.047 0.117 
0.007 -0.044 0.124 
-0.025 -0.006 0.054 
0.026 -0.005 0.122 
0.033 -0.01 0.117 
0.026 -0.012 0.124 
-0.023 -0.002 0.054 
0.022 0.021 0.122 
0.03 0.02 0.117 
0.025 0.014 0.124 
-0.024 0.001 0.054 
0.006 0.042 0.122 
0.014 0.045 0.117 
0.012 0.037 0.124 
-0.026 0.003 0.054 
-0.008 0.05 0.122 
-0.001 0.056 0.117 
-0.002 0.048 0.124 
-0.027 0.004 0.054 
-0.028 0.055 0.122 
-0.023 0.062 0.117 
-0.021 0.055 0.124 
-0.029 0.005 0.054 
-0.05 0.051 0.122 
-0.049 0.059 0.117 
-0.044 0.054 0.124 
-0.032 0.005 0.054 
-0.06 0.011 0.118 
-0.057 0.014 0.118 
-0.037 0.003 0.058 
-0.061 0.015 0.116 
-0.062 0 0.118 
-0.06 0.005 0.118 
-0.037 0 0.058 
-0.065 0.004 0.116 
-0.059 -0.015 0.118 
-0.06 -0.01 0.118 
-0.037 -0.004 0.058 
-0.064 -0.013 0.116 
-0.053 -0.023 0.118 
-0.055 -0.019 0.118 
-0.036 -0.006 0.058 
-0.058 -0.023 0.116 
-0.043 -0.031 0.118 
-0.046 -0.027 0.118 
-0.034 -0.008 0.058 
-0.048 -0.032 0.116 
-0.031 -0.033 0.118 
-0.036 -0.032 0.118 
-0.031 -0.009 0.058 
-0.035 -0.037 0.116 
-0.009 -0.026 0.118 
-0.014 -0.028 0.118 
-0.026 -0.008 0.058 
-0.01 -0.031 0.116 
0.001 -0.009 0.118 
-0.001 -0.014 0.118 
-0.023 -0.004 0.058 
0.004 -0.014 0.116 
0.001 0.008 0.118 
0.001 0.003 0.118 
-0.022 0 0.058 
0.005 0.005 0.116 
-0.007 0.022 0.118 
-0.005 0.017 0.118 
-0.024 0.004 0.058 
-0.002 0.021 0.116 
-0.025 0.031 0.118 
-0.02 0.028 0.118 
-0.027 0.006 0.058 
-0.02 0.033 0.116 
-0.038 0.03 0.118 
-0.033 0.03 0.118 
-0.031 0.006 0.058 
-0.035 0.034 0.116 
-0.046 0.027 0.118 
-0.041 0.028 0.118 
-0.033 0.006 0.058 
-0.044 0.031 0.116 
-0.048 -0.012 0.035 
-0.03 -0.022 0.035 
-0.045 -0.01 0.028 
-0.03 -0.019 0.028 
-0.048 0.009 0.035 
-0.045 0.008 0.028 
-0.03 0.019 0.035 
-0.03 0.016 0.028 
-0.014 0.008 0.028 
-0.014 -0.01 0.028 
-0.012 0.009 0.035 
-0.012 -0.012 0.035 
-0.014 -0.01 -0.006 
-0.03 -0.019 -0.006 
-0.03 0.016 -0.006 
-0.014 0.008 -0.006 
-0.045 -0.01 -0.006 
-0.045 0.008 -0.006 
-0.016 -0.009 -0.011 
-0.03 -0.018 -0.011 
-0.016 0.007 -0.011 
-0.03 0.015 -0.011 
-0.044 -0.009 -0.011 
-0.044 0.007 -0.011 
-0.031 -0.014 -0.077 
-0.042 -0.008 -0.076 
-0.031 0.011 -0.078 
-0.042 0.005 -0.077 
-0.02 0.005 -0.079 
-0.02 -0.008 -0.079 
-0.041 -0.008 -0.066 
-0.03 -0.014 -0.067 
-0.03 0.012 -0.068 
-0.041 0.005 -0.066 
-0.019 0.005 -0.069 
-0.019 -0.008 -0.069 
-0.041 0.005 -0.058 
-0.041 -0.008 -0.058 
-0.019 0.005 -0.058 
-0.03 0.012 -0.058 
-0.019 -0.008 -0.058 
-0.03 -0.014 -0.058 
-0.044 -0.009 -0.044 
-0.03 -0.018 -0.044 
-0.044 0.007 -0.044 
-0.03 0.015 -0.044 
-0.016 0.007 -0.044 
-0.016 -0.009 -0.044 
-0.108 0.011 0.123 
-0.042 -0.001 0.058 
-0.109 0 0.123 
-0.115 0.006 0.116 
-0.108 -0.011 0.123 
-0.042 -0.004 0.058 
-0.106 -0.021 0.123 
-0.114 -0.017 0.116 
-0.1 -0.038 0.123 
-0.04 -0.008 0.058 
-0.094 -0.047 0.123 
-0.102 -0.046 0.116 
-0.088 -0.055 0.123 
-0.038 -0.011 0.058 
-0.08 -0.063 0.123 
-0.088 -0.064 0.116 
-0.064 -0.073 0.123 
-0.034 -0.013 0.058 
-0.054 -0.077 0.123 
-0.061 -0.08 0.116 
-0.017 -0.079 0.123 
-0.026 -0.013 0.058 
-0.006 -0.077 0.123 
-0.01 -0.084 0.116 
0.027 -0.056 0.123 
-0.02 -0.009 0.058 
0.034 -0.048 0.123 
0.035 -0.056 0.116 
0.039 -0.041 0.123 
-0.018 -0.006 0.058 
0.044 -0.031 0.123 
0.047 -0.039 0.116 
0.049 -0.006 0.123 
-0.017 -0.001 0.058 
0.049 0.005 0.123 
0.056 -0.001 0.116 
0.041 0.034 0.123 
-0.019 0.006 0.058 
0.036 0.043 0.123 
0.044 0.042 0.116 
0.023 0.058 0.123 
-0.022 0.009 0.058 
0.014 0.064 0.123 
0.023 0.066 0.116 
0.009 0.068 0.123 
-0.025 0.01 0.058 
0 0.072 0.123 
0.007 0.076 0.116 
-0.028 0.078 0.123 
-0.031 0.011 0.058 
-0.039 0.077 0.123 
-0.033 0.084 0.116 
-0.055 0.074 0.123 
-0.035 0.01 0.058 
-0.065 0.069 0.123 
-0.063 0.077 0.116 
-0.074 0.065 0.123 
-0.038 0.008 0.058 
-0.082 0.058 0.123 
-0.082 0.066 0.116 
-0.094 0.044 0.123 
-0.041 0.005 0.058 
-0.1 0.035 0.123 
-0.103 0.043 0.116 
3 0 1 2 
3 3 4 5 
3 5 6 3 
3 7 3 6 
3 1 0 8 
3 0 9 8 
3 7 6 9 
3 9 6 8 
3 10 11 12 
3 13 14 15 
3 15 16 13 
3 17 13 16 
3 18 19 20 
3 19 21 20 
3 11 10 22 
3 10 23 22 
3 19 18 23 
3 23 18 22 
3 21 17 20 
3 17 16 20 
3 24 25 26 
3 27 28 29 
3 30 27 31 
3 27 29 31 
3 32 33 34 
3 34 33 35 
3 25 24 36 
3 24 37 36 
3 34 35 37 
3 37 35 36 
3 31 33 30 
3 32 30 33 
3 38 39 40 
3 41 42 43 
3 43 44 41 
3 45 41 44 
3 46 47 48 
3 49 48 47 
3 39 38 50 
3 38 51 50 
3 50 51 47 
3 51 49 47 
3 44 46 45 
3 48 45 46 
3 52 53 54 
3 55 56 57 
3 57 58 55 
3 59 55 58 
3 60 61 62 
3 62 61 63 
3 53 52 64 
3 52 65 64 
3 64 65 63 
3 65 62 63 
3 60 59 61 
3 59 58 61 
3 66 67 68 
3 69 70 71 
3 71 72 69 
3 73 69 72 
3 74 75 76 
3 77 76 75 
3 67 66 78 
3 66 79 78 
3 78 79 75 
3 79 77 75 
3 72 74 73 
3 76 73 74 
3 80 81 82 
3 83 84 85 
3 85 86 83 
3 87 83 86 
3 88 89 90 
3 90 89 91 
3 92 93 80 
3 80 93 81 
3 93 92 91 
3 92 90 91 
3 88 87 89 
3 87 86 89 
3 94 95 96 
3 97 98 99 
3 100 101 102 
3 101 103 102 
3 99 104 97 
3 105 97 104 
3 104 106 105 
3 107 105 106 
3 95 94 100 
3 94 101 100 
3 102 103 106 
3 103 107 106 
3 108 109 110 
3 111 112 113 
3 113 114 111 
3 115 111 114 
3 116 117 118 
3 118 117 119 
3 109 108 120 
3 108 121 120 
3 118 119 121 
3 121 119 120 
3 114 117 115 
3 116 115 117 
3 122 123 124 
3 125 123 126 
3 127 123 128 
3 129 130 131 
3 132 130 133 
3 134 130 135 
3 135 130 132 
3 133 130 129 
3 131 130 134 
3 128 123 125 
3 126 123 122 
3 124 123 127 
3 136 137 138 
3 139 140 138 
3 140 139 141 
3 142 143 144 
3 145 146 137 
3 146 147 138 
3 138 147 139 
3 140 141 144 
3 144 148 149 
3 149 142 144 
3 143 150 140 
3 150 151 138 
3 151 136 138 
3 136 145 137 
3 144 141 148 
3 140 144 143 
3 138 137 146 
3 138 140 150 
3 152 153 150 
3 152 154 146 
3 153 155 143 
3 155 141 148 
3 145 154 136 
3 136 152 151 
3 151 152 150 
3 150 153 143 
3 142 155 149 
3 155 148 149 
3 153 141 155 
3 152 147 139 
3 146 147 152 
3 145 146 154 
3 142 143 155 
3 153 139 141 
3 139 153 152 
3 136 154 152 
3 156 157 158 
3 159 160 161 
3 159 162 163 
3 164 165 166 
3 167 168 169 
3 169 168 159 
3 157 160 159 
3 158 165 164 
3 164 166 170 
3 170 171 164 
3 158 164 156 
3 163 158 159 
3 161 169 159 
3 161 167 169 
3 171 156 164 
3 168 162 159 
3 159 158 157 
3 158 163 165 
3 172 163 165 
3 173 172 157 
3 168 162 173 
3 171 156 174 
3 167 175 161 
3 161 175 173 
3 163 172 173 
3 172 174 156 
3 171 174 170 
3 174 166 170 
3 172 165 174 
3 160 173 157 
3 175 168 173 
3 167 168 175 
3 174 165 166 
3 173 162 163 
3 173 160 161 
3 156 157 172 
3 176 177 178 
3 179 180 181 
3 182 183 184 
3 182 185 177 
3 186 187 188 
3 188 187 182 
3 182 177 176 
3 181 189 179 
3 179 190 180 
3 176 178 179 
3 189 191 176 
3 191 183 182 
3 184 188 182 
3 184 186 188 
3 187 185 182 
3 182 176 191 
3 179 178 190 
3 176 179 189 
3 192 193 189 
3 193 178 190 
3 194 192 191 
3 187 185 194 
3 186 195 184 
3 184 195 194 
3 183 194 191 
3 191 192 189 
3 192 178 193 
3 193 190 180 
3 181 189 193 
3 194 177 192 
3 195 187 194 
3 186 187 195 
3 194 185 177 
3 194 183 184 
3 193 180 181 
3 192 177 178 
3 196 197 198 
3 199 198 200 
3 201 202 203 
3 204 199 203 
3 205 206 202 
3 206 207 203 
3 203 207 204 
3 199 208 198 
3 198 208 196 
3 197 209 198 
3 200 210 199 
3 203 199 210 
3 211 201 203 
3 201 205 202 
3 203 202 206 
3 210 211 203 
3 199 204 208 
3 209 200 198 
3 209 200 212 
3 213 204 208 
3 210 211 214 
3 214 215 206 
3 205 215 201 
3 201 214 211 
3 214 213 210 
3 210 213 200 
3 209 212 197 
3 212 208 196 
3 213 208 212 
3 214 207 204 
3 206 207 214 
3 205 206 215 
3 204 213 214 
3 201 215 214 
3 213 212 200 
3 196 197 212 
3 216 217 218 
3 219 218 220 
3 221 222 223 
3 223 224 225 
3 226 227 222 
3 227 224 223 
3 223 225 219 
3 219 228 218 
3 218 228 216 
3 229 220 218 
3 220 230 219 
3 230 231 223 
3 231 221 223 
3 221 226 222 
3 223 222 227 
3 223 219 230 
3 219 225 228 
3 218 217 229 
3 232 217 229 
3 233 225 228 
3 234 233 230 
3 234 235 227 
3 226 235 221 
3 221 234 231 
3 231 234 230 
3 230 233 220 
3 229 220 232 
3 232 228 216 
3 233 228 232 
3 234 225 233 
3 227 224 234 
3 226 227 235 
3 234 224 225 
3 221 235 234 
3 233 232 220 
3 216 217 232 
3 236 237 238 
3 239 240 241 
3 242 243 244 
3 240 239 242 
3 245 246 247 
3 246 248 242 
3 242 248 240 
3 239 241 238 
3 238 249 250 
3 250 236 238 
3 237 251 239 
3 251 243 242 
3 244 247 242 
3 244 245 247 
3 242 247 246 
3 242 239 251 
3 239 238 237 
3 238 241 249 
3 252 241 249 
3 253 252 237 
3 254 253 251 
3 254 255 246 
3 245 255 244 
3 244 255 254 
3 243 254 251 
3 251 253 237 
3 236 252 250 
3 252 249 250 
3 253 241 252 
3 254 248 240 
3 246 248 254 
3 245 246 255 
3 240 253 254 
3 254 243 244 
3 253 240 241 
3 236 237 252 
3 256 257 258 
3 259 260 261 
3 262 263 259 
3 264 265 256 
3 266 267 265 
3 268 269 270 
3 269 271 259 
3 259 271 262 
3 262 272 256 
3 256 272 264 
3 265 273 274 
3 274 266 265 
3 267 257 256 
3 258 263 256 
3 258 260 259 
3 261 270 259 
3 261 268 270 
3 265 264 273 
3 256 263 262 
3 259 270 269 
3 259 263 258 
3 256 265 267 
3 267 275 276 
3 258 277 278 
3 269 279 278 
3 262 277 276 
3 273 264 275 
3 261 279 268 
3 278 279 261 
3 258 278 260 
3 276 277 258 
3 267 276 257 
3 274 275 266 
3 274 273 275 
3 264 272 276 
3 276 272 262 
3 262 271 278 
3 278 271 269 
3 279 269 268 
3 275 267 266 
3 276 275 264 
3 278 277 262 
3 261 260 278 
3 258 257 276 
3 280 281 282 
3 283 284 285 
3 286 287 284 
3 280 285 288 
3 289 286 290 
3 291 292 293 
3 292 281 280 
3 280 282 285 
3 285 282 283 
3 284 283 294 
3 290 294 295 
3 296 289 290 
3 284 290 286 
3 285 284 287 
3 288 297 280 
3 298 293 280 
3 298 291 293 
3 295 296 290 
3 280 297 298 
3 287 288 285 
3 294 290 284 
3 280 293 292 
3 292 299 300 
3 301 302 294 
3 303 288 287 
3 298 297 300 
3 302 296 295 
3 298 299 291 
3 300 299 298 
3 288 300 297 
3 287 301 303 
3 286 302 301 
3 296 302 289 
3 295 294 302 
3 294 283 301 
3 283 282 303 
3 303 282 300 
3 300 281 292 
3 299 292 291 
3 302 286 289 
3 288 303 300 
3 301 287 286 
3 303 301 283 
3 282 281 300 
3 304 305 306 
3 307 308 309 
3 310 311 312 
3 313 309 314 
3 304 315 40 
3 316 40 39 
3 46 44 50 
3 317 318 312 
3 318 319 314 
3 314 319 313 
3 309 313 305 
3 306 315 304 
3 304 40 316 
3 316 39 43 
3 50 47 46 
3 39 50 44 
3 42 316 43 
3 320 304 316 
3 305 320 307 
3 309 305 307 
3 310 314 309 
3 312 314 310 
3 312 311 317 
3 44 43 39 
3 42 321 316 
3 316 321 320 
3 314 312 318 
3 309 308 310 
3 313 306 305 
3 305 304 320 
3 322 323 320 
3 313 306 322 
3 324 308 310 
3 325 326 318 
3 327 321 320 
3 42 321 327 
3 45 41 38 
3 317 326 311 
3 326 325 310 
3 310 325 324 
3 324 322 307 
3 307 322 320 
3 320 323 327 
3 42 327 41 
3 38 51 45 
3 51 49 48 
3 327 38 41 
3 323 40 327 
3 306 315 323 
3 324 313 322 
3 325 319 313 
3 318 319 325 
3 317 318 326 
3 48 45 51 
3 327 40 38 
3 323 315 40 
3 313 324 325 
3 310 311 326 
3 307 308 324 
3 323 322 306 
3 328 329 330 
3 331 332 333 
3 332 331 334 
3 335 336 98 
3 96 336 335 
3 100 104 99 
3 329 337 338 
3 337 329 328 
3 339 328 332 
3 332 334 340 
3 331 335 341 
3 342 343 335 
3 335 343 96 
3 336 96 95 
3 100 102 106 
3 99 95 100 
3 98 336 99 
3 335 98 344 
3 335 344 341 
3 333 342 331 
3 328 333 332 
3 330 345 328 
3 338 330 329 
3 106 104 100 
3 95 99 336 
3 335 331 342 
3 341 334 331 
3 332 340 339 
3 328 345 333 
3 328 339 337 
3 337 339 346 
3 333 345 346 
3 339 340 347 
3 348 334 341 
3 342 348 349 
3 350 97 94 
3 101 105 107 
3 351 330 338 
3 346 345 330 
3 347 333 346 
3 348 342 333 
3 344 349 341 
3 98 349 344 
3 97 350 98 
3 101 94 97 
3 107 103 101 
3 94 96 350 
3 96 343 349 
3 349 343 342 
3 341 349 348 
3 334 347 340 
3 347 346 339 
3 346 351 337 
3 337 351 338 
3 97 105 101 
3 349 350 96 
3 98 350 349 
3 334 348 347 
3 333 347 348 
3 330 351 346 
3 352 353 354 
3 352 355 356 
3 357 358 353 
3 359 360 361 
3 362 359 363 
3 28 360 359 
3 32 30 37 
3 364 365 366 
3 365 356 355 
3 356 367 352 
3 352 367 368 
3 368 369 363 
3 363 369 362 
3 362 26 370 
3 37 34 32 
3 27 24 37 
3 28 370 27 
3 359 370 28 
3 361 363 359 
3 361 358 357 
3 353 352 357 
3 354 355 352 
3 371 366 355 
3 371 364 366 
3 37 30 27 
3 370 359 362 
3 363 357 368 
3 357 363 361 
3 368 357 352 
3 355 366 365 
3 355 354 371 
3 26 27 370 
3 26 24 27 
3 372 354 371 
3 372 373 365 
3 368 374 375 
3 374 376 361 
3 376 374 368 
3 377 378 362 
3 36 31 29 
3 364 373 371 
3 371 373 372 
3 354 372 375 
3 353 375 374 
3 358 374 361 
3 361 376 378 
3 378 377 28 
3 28 377 29 
3 29 25 36 
3 36 35 33 
3 362 26 377 
3 376 369 362 
3 368 369 376 
3 375 367 368 
3 356 367 375 
3 365 356 372 
3 364 365 373 
3 33 31 36 
3 28 360 378 
3 362 378 376 
3 378 360 361 
3 374 358 353 
3 375 372 356 
3 375 353 354 
3 377 26 29 
3 26 25 29 
3 379 380 381 
3 382 383 384 
3 385 386 387 
3 388 389 84 
3 387 386 388 
3 83 87 92 
3 383 390 391 
3 379 381 384 
3 383 382 390 
3 381 392 384 
3 385 393 381 
3 387 393 385 
3 388 394 387 
3 395 82 388 
3 80 82 395 
3 88 90 92 
3 92 80 83 
3 83 395 84 
3 84 395 388 
3 388 386 396 
3 381 393 392 
3 384 397 382 
3 381 380 398 
3 379 384 383 
3 92 87 88 
3 82 394 388 
3 396 389 388 
3 395 83 80 
3 392 397 384 
3 398 385 381 
3 383 391 379 
3 385 398 386 
3 386 398 396 
3 399 391 379 
3 398 400 401 
3 392 397 402 
3 403 85 81 
3 396 389 404 
3 82 394 404 
3 93 86 89 
3 379 402 399 
3 398 401 380 
3 402 397 382 
3 401 393 392 
3 404 405 396 
3 84 403 404 
3 85 403 84 
3 93 81 85 
3 89 91 93 
3 81 82 403 
3 403 82 404 
3 404 394 387 
3 387 393 400 
3 400 393 401 
3 401 392 402 
3 399 382 390 
3 379 401 402 
3 391 399 390 
3 85 86 93 
3 387 405 404 
3 404 389 84 
3 400 405 387 
3 382 399 402 
3 379 380 401 
3 398 405 400 
3 396 405 398 
3 406 407 408 
3 409 410 411 
3 412 406 413 
3 409 414 415 
3 54 416 417 
3 418 411 410 
3 52 55 416 
3 60 59 65 
3 419 420 421 
3 421 420 413 
3 413 422 412 
3 412 414 409 
3 409 415 410 
3 423 418 417 
3 424 423 417 
3 56 416 55 
3 55 52 65 
3 65 62 60 
3 416 54 52 
3 417 425 54 
3 415 425 417 
3 410 417 418 
3 411 426 409 
3 427 412 409 
3 406 412 427 
3 408 421 406 
3 408 419 421 
3 65 59 55 
3 56 424 416 
3 417 416 424 
3 417 410 415 
3 412 422 414 
3 409 426 427 
3 427 407 406 
3 413 406 421 
3 408 407 428 
3 411 429 430 
3 413 428 431 
3 415 414 430 
3 432 433 54 
3 429 411 418 
3 433 57 53 
3 64 58 61 
3 434 420 419 
3 413 420 434 
3 431 422 413 
3 430 414 431 
3 429 415 430 
3 423 432 418 
3 424 432 423 
3 57 433 56 
3 64 53 57 
3 61 63 64 
3 53 54 433 
3 54 425 432 
3 432 425 415 
3 418 432 429 
3 411 430 426 
3 430 431 427 
3 427 431 428 
3 428 434 408 
3 408 434 419 
3 57 58 64 
3 433 424 56 
3 424 433 432 
3 415 429 432 
3 414 422 431 
3 427 426 430 
3 428 407 427 
3 434 428 413 
3 435 436 437 
3 438 439 440 
3 441 442 439 
3 443 444 445 
3 446 447 448 
3 449 446 438 
3 444 450 2 
3 445 2 1 
3 436 451 452 
3 451 436 435 
3 453 435 439 
3 439 438 441 
3 441 438 446 
3 446 448 454 
3 448 447 444 
3 445 455 443 
3 4 445 5 
3 1 8 6 
3 445 1 5 
3 444 2 445 
3 456 450 444 
3 449 456 447 
3 438 457 449 
3 440 457 438 
3 435 458 440 
3 437 458 435 
3 452 437 436 
3 6 5 1 
3 4 455 445 
3 444 447 456 
3 447 446 449 
3 444 443 448 
3 446 454 441 
3 439 442 453 
3 440 439 435 
3 435 453 451 
3 459 453 451 
3 440 460 459 
3 460 442 453 
3 461 454 441 
3 462 443 448 
3 463 461 449 
3 462 463 456 
3 4 455 464 
3 7 3 0 
3 452 437 465 
3 437 458 459 
3 459 458 440 
3 440 457 466 
3 466 457 449 
3 449 456 463 
3 456 450 462 
3 462 2 464 
3 464 0 3 
3 0 9 7 
3 4 464 3 
3 443 464 455 
3 448 463 462 
3 454 461 448 
3 441 466 461 
3 460 466 441 
3 453 459 460 
3 451 465 459 
3 452 465 451 
3 464 2 0 
3 462 450 2 
3 449 461 466 
3 461 463 448 
3 443 462 464 
3 441 442 460 
3 466 460 440 
3 459 465 437 
3 467 468 469 
3 470 471 472 
3 473 474 472 
3 475 471 476 
3 477 469 478 
3 479 480 478 
3 481 482 14 
3 13 17 23 
3 474 483 484 
3 472 474 484 
3 472 485 470 
3 471 470 467 
3 469 476 467 
3 469 468 486 
3 481 486 482 
3 14 487 481 
3 13 487 14 
3 23 10 13 
3 21 19 23 
3 10 12 487 
3 487 479 481 
3 481 479 478 
3 478 480 477 
3 477 488 476 
3 476 488 475 
3 475 489 472 
3 472 489 473 
3 474 473 483 
3 23 17 21 
3 487 13 10 
3 481 478 486 
3 487 12 479 
3 476 469 477 
3 472 471 475 
3 484 485 472 
3 486 478 469 
3 467 476 471 
3 490 468 467 
3 491 492 470 
3 491 493 473 
3 494 492 475 
3 495 490 477 
3 495 480 479 
3 14 482 496 
3 22 16 15 
3 483 493 484 
3 484 493 491 
3 485 491 470 
3 470 492 467 
3 467 494 490 
3 468 490 486 
3 486 496 482 
3 496 497 14 
3 14 497 15 
3 15 11 22 
3 22 18 20 
3 497 12 11 
3 496 479 497 
3 495 479 496 
3 477 480 495 
3 494 488 477 
3 475 488 494 
3 491 489 475 
3 473 489 491 
3 483 473 493 
3 20 16 22 
3 11 15 497 
3 486 495 496 
3 479 12 497 
3 477 490 494 
3 475 492 491 
3 491 485 484 
3 490 495 486 
3 492 494 467 
3 498 499 500 
3 501 502 498 
3 503 504 505 
3 505 506 507 
3 70 508 509 
3 503 510 511 
3 68 512 509 
3 76 73 79 
3 513 500 499 
3 500 514 498 
3 498 514 507 
3 507 515 505 
3 505 516 510 
3 516 517 511 
3 511 517 509 
3 509 518 68 
3 512 66 69 
3 79 77 76 
3 69 66 79 
3 70 512 69 
3 509 512 70 
3 511 509 508 
3 519 503 511 
3 505 510 503 
3 501 506 505 
3 498 506 501 
3 520 499 498 
3 520 513 499 
3 79 73 69 
3 517 518 509 
3 508 519 511 
3 505 515 516 
3 505 504 501 
3 511 510 516 
3 498 502 520 
3 507 506 498 
3 512 68 66 
3 507 521 522 
3 522 502 520 
3 523 524 516 
3 525 504 501 
3 525 515 516 
3 508 519 523 
3 517 518 526 
3 78 72 71 
3 513 527 520 
3 520 527 522 
3 522 521 501 
3 501 521 525 
3 525 524 503 
3 503 523 519 
3 523 526 508 
3 526 528 70 
3 70 528 71 
3 71 67 78 
3 78 75 74 
3 528 67 71 
3 526 518 68 
3 523 517 526 
3 516 517 523 
3 525 516 524 
3 507 515 525 
3 522 514 507 
3 500 514 522 
3 513 500 527 
3 74 72 78 
3 68 528 526 
3 503 524 523 
3 70 508 526 
3 525 521 507 
3 503 504 525 
3 501 502 522 
3 522 527 500 
3 528 68 67 
3 529 530 531 
3 532 533 534 
3 535 536 537 
3 538 539 529 
3 540 541 542 
3 540 543 544 
3 543 545 110 
3 113 109 120 
3 537 536 546 
3 537 530 535 
3 529 539 535 
3 529 534 538 
3 534 533 542 
3 542 533 540 
3 540 544 541 
3 544 543 547 
3 112 547 113 
3 113 120 114 
3 120 119 117 
3 547 110 109 
3 543 110 547 
3 548 545 543 
3 533 532 540 
3 534 549 532 
3 550 549 534 
3 531 550 529 
3 537 531 530 
3 546 551 537 
3 117 114 120 
3 109 113 547 
3 543 540 548 
3 547 112 544 
3 542 538 534 
3 535 530 529 
3 534 529 550 
3 532 548 540 
3 537 551 531 
3 531 552 553 
3 554 555 532 
3 556 536 535 
3 553 539 538 
3 542 541 557 
3 544 558 557 
3 110 545 558 
3 121 108 111 
3 536 556 546 
3 535 552 556 
3 539 553 535 
3 538 554 553 
3 542 555 554 
3 557 555 542 
3 544 557 541 
3 559 558 544 
3 111 559 112 
3 115 121 111 
3 116 118 121 
3 108 110 559 
3 559 110 558 
3 558 545 548 
3 557 532 555 
3 532 549 554 
3 554 549 550 
3 553 550 531 
3 552 531 556 
3 556 551 546 
3 121 115 116 
3 559 111 108 
3 548 557 558 
3 544 112 559 
3 554 538 542 
3 553 552 535 
3 550 553 554 
3 557 548 532 
3 531 551 556 
3 560 561 562 
3 563 561 564 
3 565 561 566 
3 567 568 569 
3 570 568 571 
3 572 568 573 
3 574 568 575 
3 576 561 577 
3 575 568 567 
3 573 568 574 
3 571 568 572 
3 569 568 570 
3 566 561 576 
3 564 561 565 
3 562 561 563 
3 577 561 560 
3 578 579 569 
3 567 569 579 
3 580 570 581 
3 570 571 581 
3 582 583 573 
3 572 573 583 
3 584 574 585 
3 574 575 585 
3 586 587 578 
3 587 579 578 
3 588 589 581 
3 589 580 581 
3 590 591 582 
3 591 583 582 
3 592 593 585 
3 593 584 585 
3 590 593 562 
3 593 560 562 
3 591 563 588 
3 588 563 564 
3 586 589 566 
3 589 565 566 
3 587 576 592 
3 592 576 577 
3 586 566 587 
3 587 566 576 
3 589 588 565 
3 588 564 565 
3 590 562 591 
3 591 562 563 
3 593 592 560 
3 592 577 560 
3 587 592 579 
3 592 585 579 
3 593 590 584 
3 590 582 584 
3 591 588 583 
3 588 581 583 
3 589 586 580 
3 586 578 580 
3 582 573 584 
3 573 574 584 
3 583 581 572 
3 571 572 581 
3 578 569 580 
3 569 570 580 
3 579 585 567 
3 575 567 585 
3 594 595 596 
3 595 594 597 
3 598 599 600 
3 599 598 601 
3 602 603 604 
3 603 602 605 
3 606 607 608 
3 607 606 609 
3 610 611 612 
3 611 610 613 
3 614 615 616 
3 615 614 617 
3 618 619 620 
3 619 618 621 
3 622 623 624 
3 623 622 625 
3 626 627 628 
3 627 626 629 
3 630 631 632 
3 631 630 633 
3 634 635 636 
3 635 634 637 
3 638 639 640 
3 639 638 641 
3 640 639 641 
3 638 640 641 
3 636 635 637 
3 634 636 637 
3 632 631 633 
3 630 632 633 
3 628 627 629 
3 626 628 629 
3 624 623 625 
3 622 624 625 
3 620 619 621 
3 618 620 621 
3 616 615 617 
3 614 616 617 
3 612 611 613 
3 610 612 613 
3 608 607 609 
3 606 608 609 
3 604 603 605 
3 602 604 605 
3 600 599 601 
3 598 600 601 
3 596 595 597 
3 594 596 597 
3 642 643 644 
3 643 645 644 
3 646 647 648 
3 647 649 648 
3 650 651 652 
3 651 653 652 
3 654 655 656 
3 655 657 656 
3 658 659 660 
3 659 661 660 
3 662 663 664 
3 663 665 664 
3 666 667 668 
3 667 669 668 
3 670 671 672 
3 671 673 672 
3 674 675 676 
3 675 677 676 
3 678 679 680 
3 679 681 680 
3 682 683 684 
3 683 685 684 
3 686 687 688 
3 687 689 688 
3 690 691 692 
3 691 693 692 
3 693 690 692 
3 690 693 691 
3 689 686 688 
3 686 689 687 
3 685 682 684 
3 682 685 683 
3 681 678 680 
3 678 681 679 
3 677 674 676 
3 674 677 675 
3 673 670 672 
3 670 673 671 
3 669 666 668 
3 666 669 667 
3 665 662 664 
3 662 665 663 
3 661 658 660 
3 658 661 659 
3 657 654 656 
3 654 657 655 
3 653 650 652 
3 650 653 651 
3 649 646 648 
3 646 649 647 
3 645 642 644 
3 642 645 643 
3 694 695 696 
3 696 695 697 
3 698 699 700 
3 701 700 699 
3 702 703 704 
3 703 705 704 
3 131 705 134 
3 695 134 705 
3 129 133 704 
3 133 700 704 
3 698 132 694 
3 132 135 694 
3 706 707 703 
3 707 697 703 
3 708 709 701 
3 709 702 701 
3 710 711 696 
3 711 699 696 
3 706 712 707 
3 713 707 712 
3 709 708 714 
3 714 708 715 
3 716 717 710 
3 717 711 710 
3 718 127 719 
3 127 124 719 
3 720 721 126 
3 122 126 721 
3 125 128 722 
3 128 723 722 
3 719 724 718 
3 725 718 724 
3 720 726 721 
3 727 721 726 
3 722 723 728 
3 728 723 729 
3 727 730 724 
3 730 731 724 
3 728 732 726 
3 726 732 733 
3 729 725 734 
3 725 735 734 
3 736 737 731 
3 735 731 737 
3 738 730 739 
3 730 733 739 
3 740 732 741 
3 732 734 741 
3 713 737 716 
3 737 736 716 
3 717 738 715 
3 738 739 715 
3 714 740 712 
3 740 741 712 
3 713 712 737 
3 712 741 737 
3 715 739 714 
3 739 740 714 
3 716 736 717 
3 736 738 717 
3 741 734 737 
3 734 735 737 
3 740 739 732 
3 733 732 739 
3 736 731 738 
3 731 730 738 
3 725 724 735 
3 724 731 735 
3 728 729 732 
3 729 734 732 
3 726 733 727 
3 727 733 730 
3 723 718 729 
3 729 718 725 
3 720 722 726 
3 726 722 728 
3 721 727 719 
3 724 719 727 
3 723 128 718 
3 128 127 718 
3 722 720 125 
3 126 125 720 
3 122 721 124 
3 719 124 721 
3 710 707 716 
3 716 707 713 
3 711 717 708 
3 715 708 717 
3 714 712 709 
3 712 706 709 
3 707 710 697 
3 710 696 697 
3 711 708 699 
3 708 701 699 
3 709 706 702 
3 706 703 702 
3 135 134 694 
3 134 695 694 
3 132 698 133 
3 133 698 700 
3 705 131 704 
3 131 129 704 
3 704 700 702 
3 702 700 701 
3 696 699 694 
3 699 698 694 
3 705 703 695 
3 697 695 703 
3 742 743 744 
3 742 745 743 
3 746 747 748 
3 746 749 747 
3 750 751 752 
3 750 753 751 
3 754 755 756 
3 754 757 755 
3 758 759 760 
3 758 761 759 
3 762 763 764 
3 762 765 763 
3 766 767 768 
3 766 769 767 
3 770 771 772 
3 770 773 771 
3 774 775 776 
3 774 777 775 
3 778 779 780 
3 778 781 779 
3 782 783 784 
3 782 785 783 
3 786 787 788 
3 786 789 787 
3 790 791 792 
3 790 793 791 
3 794 795 796 
3 794 797 795 
3 798 799 800 
3 798 801 799 
3 802 803 804 
3 802 805 803 
3 805 804 803 
3 804 805 802 
3 801 800 799 
3 800 801 798 
3 797 796 795 
3 796 797 794 
3 793 792 791 
3 792 793 790 
3 789 788 787 
3 788 789 786 
3 785 784 783 
3 784 785 782 
3 781 780 779 
3 780 781 778 
3 777 776 775 
3 776 777 774 
3 773 772 771 
3 772 773 770 
3 769 768 767 
3 768 769 766 
3 765 764 763 
3 764 765 762 
3 761 760 759 
3 760 761 758 
3 757 756 755 
3 756 757 754 
3 753 752 751 
3 752 753 750 
3 749 748 747 
3 748 749 746 
3 745 744 743 
3 744 745 742 
